<svg viewBox="0 0 100 100" fill="none" xmlns="http://www.w3.org/2000/svg">
<path d="M49.3109 0H73.5533L50.826 100H26.5836L49.3109 0Z" fill="#4D8779"/>
<path d="M53.7842 21.4755L63.7252 35.7736C64.1324 36.3592 64.6408 36.8676 65.2264 37.2748L79.5245 47.2158C81.8133 48.8071 81.8133 52.1929 79.5245 53.7842L65.2264 63.7252C64.6408 64.1324 64.1324 64.6408 63.7252 65.2264L53.7842 79.5245C52.1929 81.8133 48.8071 81.8133 47.2158 79.5245L37.2748 65.2264C36.8676 64.6408 36.3592 64.1324 35.7736 63.7252L21.4755 53.7842C19.1867 52.1929 19.1867 48.8071 21.4755 47.2158L35.7736 37.2748C36.3592 36.8676 36.8676 36.3592 37.2748 35.7736L47.2158 21.4755C48.8071 19.1867 52.1929 19.1867 53.7842 21.4755Z" fill="#F5CC7C" stroke="#67350E" stroke-width="2"/>
<path fill-rule="evenodd" clip-rule="evenodd" d="M59.9138 49.5912C60.7567 49.5912 61.2215 48.6123 60.6886 47.9591L51.2327 36.3679C50.8326 35.8774 50.0831 35.8774 49.683 36.3679L40.227 47.9591C39.6942 48.6123 40.1589 49.5912 41.0019 49.5912H43.5596C43.86 49.5912 44.1445 49.4562 44.3345 49.2234L49.683 42.6671C50.0831 42.1766 50.8326 42.1766 51.2327 42.6671L56.5812 49.2234C56.7711 49.4562 57.0556 49.5912 57.3561 49.5912H59.9138Z" fill="#67350E"/>
<path fill-rule="evenodd" clip-rule="evenodd" d="M59.9138 59.0401C60.7567 59.0401 61.2215 58.0612 60.6886 57.408L51.2327 45.8167C50.8326 45.3262 50.0831 45.3262 49.683 45.8167L40.227 57.408C39.6942 58.0612 40.1589 59.0401 41.0019 59.0401H43.5596C43.86 59.0401 44.1445 58.905 44.3345 58.6722L49.683 52.1159C50.0831 51.6254 50.8326 51.6254 51.2327 52.1159L56.5812 58.6722C56.7711 58.905 57.0556 59.0401 57.3561 59.0401H59.9138Z" fill="#67350E"/>
</svg>
