<svg viewBox="0 0 100 100" fill="none" xmlns="http://www.w3.org/2000/svg">
<path d="M49.3109 0H73.5533L50.826 100H26.5836L49.3109 0Z" fill="#4D8779"/>
<mask id="path-2-inside-1_12_154" fill="white">
<path fill-rule="evenodd" clip-rule="evenodd" d="M52.8337 35.7948L52.9622 35.6456H52.9245C53.6077 34.4943 54 33.1501 54 31.7143C54 27.4538 50.5462 24 46.2857 24C43.9817 24 41.9135 25.0101 40.5 26.6116C39.0865 25.0101 37.0183 24 34.7143 24C30.4538 24 27 27.4538 27 31.7143C27 33.1501 27.3923 34.4943 28.0755 35.6456H28.0378L28.1663 35.7948C28.5861 36.467 29.1065 37.0699 29.7065 37.5824L40.5 50.1099L51.2935 37.5824C51.8935 37.0699 52.4139 36.467 52.8337 35.7948Z"/>
</mask>
<path fill-rule="evenodd" clip-rule="evenodd" d="M52.8337 35.7948L52.9622 35.6456H52.9245C53.6077 34.4943 54 33.1501 54 31.7143C54 27.4538 50.5462 24 46.2857 24C43.9817 24 41.9135 25.0101 40.5 26.6116C39.0865 25.0101 37.0183 24 34.7143 24C30.4538 24 27 27.4538 27 31.7143C27 33.1501 27.3923 34.4943 28.0755 35.6456H28.0378L28.1663 35.7948C28.5861 36.467 29.1065 37.0699 29.7065 37.5824L40.5 50.1099L51.2935 37.5824C51.8935 37.0699 52.4139 36.467 52.8337 35.7948Z" fill="#F5CC7C"/>
<path d="M52.8337 35.7948L51.3185 34.4893L51.2185 34.6054L51.1373 34.7354L52.8337 35.7948ZM52.9622 35.6456L54.4774 36.9511L57.3253 33.6456H52.9622V35.6456ZM52.9245 35.6456L51.2046 34.6249L49.4119 37.6456H52.9245V35.6456ZM40.5 26.6116L39.0005 27.9351L40.5 29.634L41.9995 27.9351L40.5 26.6116ZM28.0755 35.6456V37.6456H31.5881L29.7954 34.6249L28.0755 35.6456ZM28.0378 35.6456V33.6456H23.6747L26.5226 36.9511L28.0378 35.6456ZM28.1663 35.7948L29.8627 34.7354L29.7815 34.6054L29.6815 34.4893L28.1663 35.7948ZM29.7065 37.5824L31.2217 36.2769L31.1218 36.161L31.0055 36.0617L29.7065 37.5824ZM40.5 50.1099L38.9848 51.4153L40.5 53.1739L42.0152 51.4153L40.5 50.1099ZM51.2935 37.5824L49.9945 36.0616L49.8782 36.161L49.7783 36.2769L51.2935 37.5824ZM54.3489 37.1002L54.4774 36.9511L51.447 34.3401L51.3185 34.4893L54.3489 37.1002ZM52.9622 33.6456H52.9245V37.6456H52.9622V33.6456ZM52 31.7143C52 32.7811 51.7095 33.774 51.2046 34.6249L54.6444 36.6663C55.5059 35.2147 56 33.5191 56 31.7143H52ZM46.2857 26C49.4416 26 52 28.5584 52 31.7143H56C56 26.3492 51.6508 22 46.2857 22V26ZM41.9995 27.9351C43.0495 26.7455 44.5793 26 46.2857 26V22C43.384 22 40.7776 23.2747 39.0005 25.2882L41.9995 27.9351ZM41.9995 25.2882C40.2224 23.2747 37.616 22 34.7143 22V26C36.4207 26 37.9505 26.7455 39.0005 27.9351L41.9995 25.2882ZM34.7143 22C29.3492 22 25 26.3492 25 31.7143H29C29 28.5584 31.5584 26 34.7143 26V22ZM25 31.7143C25 33.5191 25.4941 35.2147 26.3556 36.6663L29.7954 34.6249C29.2905 33.774 29 32.7811 29 31.7143H25ZM28.0755 33.6456H28.0378V37.6456H28.0755V33.6456ZM26.5226 36.9511L26.6511 37.1002L29.6815 34.4893L29.553 34.3401L26.5226 36.9511ZM26.4699 36.8542C26.9984 37.7004 27.653 38.4586 28.4075 39.1031L31.0055 36.0617C30.56 35.6811 30.1738 35.2336 29.8627 34.7354L26.4699 36.8542ZM28.1913 38.8878L38.9848 51.4153L42.0152 48.8044L31.2217 36.2769L28.1913 38.8878ZM42.0152 51.4153L52.8087 38.8878L49.7783 36.2769L38.9848 48.8044L42.0152 51.4153ZM51.1373 34.7354C50.8262 35.2336 50.44 35.6811 49.9945 36.0616L52.5925 39.1031C53.347 38.4586 54.0016 37.7004 54.5301 36.8542L51.1373 34.7354Z" fill="#67350E" mask="url(#path-2-inside-1_12_154)"/>
<mask id="path-4-inside-2_12_154" fill="white">
<path fill-rule="evenodd" clip-rule="evenodd" d="M88.6959 61.6677L88.8887 61.4439H88.8322C89.8556 59.7194 90.4432 57.7059 90.4432 55.5552C90.4432 49.1734 85.2697 44 78.888 44C75.4367 44 72.3389 45.513 70.2216 47.9119C68.1043 45.513 65.0064 44 61.5552 44C55.1734 44 50 49.1734 50 55.5552C50 57.7059 50.5876 59.7194 51.611 61.4439H51.5546L51.7469 61.6672C52.3758 62.6742 53.1554 63.5774 54.0542 64.3451L70.2216 83.1099L86.3894 64.3447C87.2879 63.5772 88.0672 62.6743 88.6959 61.6677Z"/>
</mask>
<path fill-rule="evenodd" clip-rule="evenodd" d="M88.6959 61.6677L88.8887 61.4439H88.8322C89.8556 59.7194 90.4432 57.7059 90.4432 55.5552C90.4432 49.1734 85.2697 44 78.888 44C75.4367 44 72.3389 45.513 70.2216 47.9119C68.1043 45.513 65.0064 44 61.5552 44C55.1734 44 50 49.1734 50 55.5552C50 57.7059 50.5876 59.7194 51.611 61.4439H51.5546L51.7469 61.6672C52.3758 62.6742 53.1554 63.5774 54.0542 64.3451L70.2216 83.1099L86.3894 64.3447C87.2879 63.5772 88.0672 62.6743 88.6959 61.6677Z" fill="#F5CC7C"/>
<path d="M88.6959 61.6677L87.1807 60.3622L87.0807 60.4783L86.9996 60.6082L88.6959 61.6677ZM88.8887 61.4439L90.4039 62.7494L93.2518 59.4439H88.8887V61.4439ZM88.8322 61.4439L87.1122 60.4232L85.3196 63.4439H88.8322V61.4439ZM70.2216 47.9119L68.7221 49.2354L70.2216 50.9343L71.7211 49.2354L70.2216 47.9119ZM51.611 61.4439V63.4439H55.1236L53.3309 60.4232L51.611 61.4439ZM51.5546 61.4439V59.4439H47.1915L50.0394 62.7494L51.5546 61.4439ZM51.7469 61.6672L53.4433 60.6078L53.3622 60.4778L53.2621 60.3617L51.7469 61.6672ZM54.0542 64.3451L55.5693 63.0396L55.4695 62.9237L55.3532 62.8244L54.0542 64.3451ZM70.2216 83.1099L68.7064 84.4154L70.2216 86.174L71.7368 84.4154L70.2216 83.1099ZM86.3894 64.3447L85.0904 62.8241L84.9741 62.9234L84.8742 63.0393L86.3894 64.3447ZM90.2111 62.9731L90.4039 62.7494L87.3735 60.1385L87.1807 60.3622L90.2111 62.9731ZM88.8887 59.4439H88.8322V63.4439H88.8887V59.4439ZM88.4432 55.5552C88.4432 57.3369 87.9574 58.9991 87.1122 60.4232L90.5521 62.4646C91.7538 60.4397 92.4432 58.0749 92.4432 55.5552H88.4432ZM78.888 46C84.1652 46 88.4432 50.278 88.4432 55.5552H92.4432C92.4432 48.0689 86.3743 42 78.888 42V46ZM71.7211 49.2354C73.4748 47.2484 76.0344 46 78.888 46V42C74.8391 42 71.203 43.7777 68.7221 46.5885L71.7211 49.2354ZM71.7211 46.5885C69.2402 43.7777 65.604 42 61.5552 42V46C64.4088 46 66.9683 47.2484 68.7221 49.2354L71.7211 46.5885ZM61.5552 42C54.0689 42 48 48.0689 48 55.5552H52C52 50.278 56.278 46 61.5552 46V42ZM48 55.5552C48 58.0749 48.6894 60.4397 49.8911 62.4646L53.3309 60.4232C52.4858 58.9991 52 57.3369 52 55.5552H48ZM51.611 59.4439H51.5546V63.4439H51.611V59.4439ZM50.0394 62.7494L50.2317 62.9726L53.2621 60.3617L53.0697 60.1385L50.0394 62.7494ZM50.0505 62.7265C50.788 63.9076 51.7019 64.9661 52.7552 65.8658L55.3532 62.8244C54.6089 62.1886 53.9635 61.4408 53.4433 60.6078L50.0505 62.7265ZM52.539 65.6505L68.7064 84.4154L71.7368 81.8044L55.5693 63.0396L52.539 65.6505ZM71.7368 84.4154L87.9046 65.6502L84.8742 63.0393L68.7064 81.8044L71.7368 84.4154ZM86.9996 60.6082C86.4795 61.4409 85.8344 62.1885 85.0904 62.8241L87.6885 65.8654C88.7414 64.9659 89.655 63.9077 90.3923 62.7271L86.9996 60.6082Z" fill="#67350E" mask="url(#path-4-inside-2_12_154)"/>
<path d="M68.4097 30.4837L68.4981 30.5076C69.5111 30.7815 69.5111 32.2185 68.4981 32.4924L68.4097 32.5163C67.3802 32.7947 66.5892 33.6199 66.3547 34.6603C66.1493 35.5716 64.8507 35.5716 64.6453 34.6603C64.4108 33.6199 63.6198 32.7947 62.5903 32.5163L62.5019 32.4924C61.4889 32.2185 61.4889 30.7815 62.5019 30.5076L62.5903 30.4837C63.6198 30.2053 64.4108 29.3801 64.6453 28.3397C64.8507 27.4284 66.1493 27.4284 66.3547 28.3397C66.5892 29.3801 67.3802 30.2053 68.4097 30.4837Z" fill="#F5CC7C" stroke="#67350E" stroke-width="2"/>
<path d="M41.9708 72.1432C43.1232 71.8359 44.0314 70.9124 44.2999 69.738C44.5915 68.4624 46.4085 68.4624 46.7001 69.738C46.9686 70.9124 47.8768 71.8359 49.0292 72.1432C50.3981 72.5082 50.3981 74.4918 49.0292 74.8568C47.8768 75.1641 46.9686 76.0876 46.7001 77.262C46.4085 78.5376 44.5915 78.5376 44.2999 77.262C44.0314 76.0876 43.1232 75.1641 41.9708 74.8568C40.6019 74.4918 40.6019 72.5082 41.9708 72.1432Z" fill="#F5CC7C" stroke="#67350E" stroke-width="2"/>
</svg>
