<svg viewBox="0 0 100 100" fill="none" xmlns="http://www.w3.org/2000/svg">
<path d="M49.3109 0H73.5533L50.826 100H26.5836L49.3109 0Z" fill="#4D8779"/>
<mask id="path-2-inside-1_1_61" fill="white">
<path fill-rule="evenodd" clip-rule="evenodd" d="M50.2021 42.9328C50.2021 42.9328 50.2021 42.9328 50.2022 42.9328L79.456 35.0943C79.4652 35.0918 79.4746 35.0972 79.477 35.1064V35.1064C79.4755 35.1008 79.474 35.0953 79.4726 35.0898C77.3068 27.0069 68.9986 22.2102 60.9158 24.376C52.833 26.5418 48.0363 34.8499 50.2021 42.9328V42.9328Z"/>
</mask>
<path fill-rule="evenodd" clip-rule="evenodd" d="M50.2021 42.9328C50.2021 42.9328 50.2021 42.9328 50.2022 42.9328L79.456 35.0943C79.4652 35.0918 79.4746 35.0972 79.477 35.1064V35.1064C79.4755 35.1008 79.474 35.0953 79.4726 35.0898C77.3068 27.0069 68.9986 22.2102 60.9158 24.376C52.833 26.5418 48.0363 34.8499 50.2021 42.9328V42.9328Z" fill="#F5CC7C"/>
<path d="M79.456 35.0943L79.9737 37.0261L79.456 35.0943ZM50.2022 42.9328L49.6845 41.001L50.2022 42.9328ZM50.7198 44.8647L79.9737 37.0261L78.9384 33.1624L49.6845 41.001L50.7198 44.8647ZM77.5407 35.6074C77.542 35.6121 77.5433 35.6169 77.5446 35.6221L81.4094 34.5907C81.4078 34.5847 81.4061 34.5785 81.4044 34.5721L77.5407 35.6074ZM61.4335 26.3079C68.4494 24.428 75.6608 28.5915 77.5407 35.6074L81.4044 34.5721C78.9527 25.4224 69.5479 19.9925 60.3982 22.4442L61.4335 26.3079ZM52.1339 42.4151C50.254 35.3992 54.4176 28.1878 61.4335 26.3079L60.3982 22.4442C51.2484 24.8958 45.8186 34.3007 48.2702 43.4504L52.1339 42.4151ZM79.9737 37.0261C78.9158 37.3096 77.8286 36.6817 77.5452 35.624L81.4089 34.5887C81.1205 33.5128 80.0146 32.874 78.9384 33.1624L79.9737 37.0261ZM49.6845 41.001C50.7514 40.7151 51.8481 41.3482 52.1339 42.4151L48.2702 43.4504C48.5561 44.5174 49.6528 45.1505 50.7198 44.8647L49.6845 41.001Z" fill="#67350E" mask="url(#path-2-inside-1_1_61)"/>
<mask id="path-4-inside-2_1_61" fill="white">
<path fill-rule="evenodd" clip-rule="evenodd" d="M54.3237 41.9569C53.8007 41.7796 53.2501 42.0991 53.1072 42.6326L45.5275 70.9205C45.525 70.9297 45.5156 70.9351 45.5064 70.9327V70.9327C45.5119 70.9342 45.5175 70.9357 45.523 70.9372C53.6058 73.1029 61.914 68.3062 64.0798 60.2234C66.1586 52.4652 61.8229 44.4994 54.3237 41.9569Z"/>
</mask>
<path fill-rule="evenodd" clip-rule="evenodd" d="M54.3237 41.9569C53.8007 41.7796 53.2501 42.0991 53.1072 42.6326L45.5275 70.9205C45.525 70.9297 45.5156 70.9351 45.5064 70.9327V70.9327C45.5119 70.9342 45.5175 70.9357 45.523 70.9372C53.6058 73.1029 61.914 68.3062 64.0798 60.2234C66.1586 52.4652 61.8229 44.4994 54.3237 41.9569Z" fill="#F5CC7C"/>
<path d="M45.5275 70.9205L43.5956 70.4029L45.5275 70.9205ZM51.1753 42.115L43.5956 70.4029L47.4593 71.4382L55.039 43.1502L51.1753 42.115ZM46.0406 69.0053C46.036 69.004 46.0311 69.0027 46.026 69.0014L44.9868 72.864C44.9928 72.8656 44.999 72.8673 45.0054 72.869L46.0406 69.0053ZM62.1479 59.7058C60.268 66.7217 53.0565 70.8852 46.0406 69.0053L45.0054 72.869C54.1551 75.3207 63.5599 69.8908 66.0116 60.741L62.1479 59.7058ZM53.6816 43.851C60.189 46.0573 63.9521 52.9724 62.1479 59.7058L66.0116 60.741C68.365 51.958 63.4568 42.9416 54.9659 40.0628L53.6816 43.851ZM43.5956 70.4029C43.879 69.3453 44.9662 68.7174 46.0241 69.0008L44.9888 72.8645C46.065 73.1529 47.171 72.5142 47.4593 71.4382L43.5956 70.4029ZM55.039 43.1502C54.9051 43.65 54.333 44.0719 53.6816 43.851L54.9659 40.0628C53.2684 39.4873 51.5951 40.5483 51.1753 42.115L55.039 43.1502Z" fill="#67350E" mask="url(#path-4-inside-2_1_61)"/>
<mask id="path-6-inside-3_1_61" fill="white">
<path fill-rule="evenodd" clip-rule="evenodd" d="M31.2367 24.2424C31.2367 24.2424 31.2367 24.2424 31.2367 24.2424V24.2424C25.3197 30.1595 25.3197 39.7529 31.2367 45.6699C37.1538 51.5869 46.7472 51.5869 52.6642 45.6699C52.6672 45.6669 52.6703 45.6638 52.6733 45.6608V45.6608C52.6683 45.6658 52.6601 45.6658 52.6551 45.6608L31.2367 24.2424Z"/>
</mask>
<path fill-rule="evenodd" clip-rule="evenodd" d="M31.2367 24.2424C31.2367 24.2424 31.2367 24.2424 31.2367 24.2424V24.2424C25.3197 30.1595 25.3197 39.7529 31.2367 45.6699C37.1538 51.5869 46.7472 51.5869 52.6642 45.6699C52.6672 45.6669 52.6703 45.6638 52.6733 45.6608V45.6608C52.6683 45.6658 52.6601 45.6658 52.6551 45.6608L31.2367 24.2424Z" fill="#F5CC7C"/>
<path d="M32.6509 44.2557C27.515 39.1197 27.515 30.7926 32.6509 25.6566L29.8225 22.8282C23.1244 29.5263 23.1244 40.386 29.8225 47.0841L32.6509 44.2557ZM51.25 44.2557C46.114 49.3917 37.7869 49.3917 32.6509 44.2557L29.8225 47.0841C36.5206 53.7822 47.3803 53.7822 54.0784 47.0841L51.25 44.2557ZM51.2579 44.2477C51.2553 44.2504 51.2526 44.253 51.25 44.2557L54.0784 47.0841C54.0818 47.0807 54.0853 47.0773 54.0887 47.0738L51.2579 44.2477ZM54.0693 44.2466L32.651 22.8282L29.8225 25.6566L51.2409 47.075L54.0693 44.2466ZM51.2591 44.2466C52.0351 43.4705 53.2933 43.4705 54.0693 44.2466L51.2409 47.075C52.027 47.8611 53.3014 47.8611 54.0875 47.075L51.2591 44.2466ZM32.6509 25.6566C32.5259 25.7817 32.1566 26.1221 31.5483 26.218C30.7924 26.3372 30.1782 26.0123 29.8225 25.6566L32.651 22.8282C32.2953 22.4725 31.6811 22.1476 30.9252 22.2668C30.3168 22.3628 29.9476 22.7031 29.8225 22.8282L32.6509 25.6566Z" fill="#67350E" mask="url(#path-6-inside-3_1_61)"/>
<path d="M59.9169 43.5606C59.9169 47.9538 56.3556 51.5152 51.9624 51.5152C47.5692 51.5152 44.0078 47.9538 44.0078 43.5606C44.0078 39.1675 47.5692 35.6061 51.9624 35.6061C56.3556 35.6061 59.9169 39.1675 59.9169 43.5606Z" fill="#F5CC7C"/>
<circle cx="51.9624" cy="43.5606" r="2.65152" fill="#67350E"/>
<path fill-rule="evenodd" clip-rule="evenodd" d="M57.2395 38.3855C56.5558 38.636 56.4013 39.5879 56.7875 40.2052C57.3465 41.099 57.6442 42.2296 57.6442 43.5606C57.6442 44.8227 57.3765 45.9047 56.8721 46.7753C56.8209 46.8638 56.7798 46.958 56.7544 47.0571L56.4588 48.2116C56.2402 49.0655 57.1136 49.6856 57.7217 49.0474C59.0819 47.6201 59.9169 45.6878 59.9169 43.5606C59.9169 41.7035 59.2806 39.995 58.214 38.6414C57.984 38.3495 57.5885 38.2576 57.2395 38.3855V38.3855ZM51.9624 49.2424C52.1505 49.2424 52.3345 49.2364 52.5145 49.2247C53.3192 49.172 54.104 49.9117 53.904 50.693L53.8961 50.7239C53.8032 51.0867 53.5162 51.3724 53.1458 51.4277C52.7597 51.4853 52.3645 51.5151 51.9624 51.5151C48.499 51.5151 45.5526 49.3017 44.4605 46.2122C44.1755 45.4058 45.0826 44.8802 45.7656 45.3951L46.5155 45.9604C46.6603 46.0695 46.7707 46.2172 46.8474 46.3815C47.701 48.2104 49.4843 49.2424 51.9624 49.2424ZM45.0118 41.4165C45.617 41.8727 46.5038 41.5053 46.8136 40.8137C47.581 39.1 49.1486 38.0673 51.3298 37.9022C51.4278 37.8947 51.5252 37.8751 51.6175 37.8413L53.293 37.2275C54.1183 36.9251 54.1381 35.8567 53.271 35.7131C52.8452 35.6427 52.4081 35.606 51.9624 35.606C48.7271 35.606 45.943 37.5374 44.7001 40.3101C44.5239 40.7032 44.6679 41.1572 45.0118 41.4165V41.4165Z" fill="#67350E"/>
<circle cx="66.7351" cy="65.9091" r="11.1212" fill="#F5CC7C" stroke="#67350E" stroke-width="2"/>
<path fill-rule="evenodd" clip-rule="evenodd" d="M73.5533 66.6667C73.5533 69.3849 71.9626 71.7317 69.6612 72.8268C69.2785 73.0089 69.0079 73.3802 69.0079 73.804V77.0303C69.0079 77.5825 68.5601 78.0303 68.0079 78.0303H65.4624C64.9101 78.0303 64.4624 77.5825 64.4624 77.0303V73.804C64.4624 73.3802 64.1917 73.0089 63.809 72.8268C61.5077 71.7317 59.9169 69.3849 59.9169 66.6667C59.9169 64.5674 60.8657 62.6897 62.3578 61.439C62.9267 60.9621 63.7048 61.4285 63.7048 62.1708V66.9242C63.7048 67.239 63.853 67.5354 64.1048 67.7242L66.1351 69.247C66.4907 69.5136 66.9796 69.5136 67.3351 69.247L69.3654 67.7242C69.6172 67.5354 69.7654 67.239 69.7654 66.9242V62.1708C69.7654 61.4285 70.5436 60.9621 71.1125 61.439C72.6046 62.6897 73.5533 64.5674 73.5533 66.6667Z" fill="#67350E"/>
</svg>
